<?xml version="1.0" encoding="utf-8"?>
<!-- Generator: Adobe Illustrator 24.0.0, SVG Export Plug-In . SVG Version: 6.00 Build 0)  -->
<svg version="1.1" xmlns="http://www.w3.org/2000/svg" xmlns:xlink="http://www.w3.org/1999/xlink" x="0px" y="0px"
	 viewBox="0 0 300 300" style="enable-background:new 0 0 300 300;" xml:space="preserve">
<style type="text/css">
	.st0{display:none;}
	.st1{display:inline;fill:#F4F4F4;}
	.st2{fill:#98BC00;}
	.st3{display:inline;}
</style>
<g id="Fondo" class="st0">
	<rect x="0" y="0" class="st1" width="300" height="300"/>
</g>
<g id="Logotipo">
	<path id="L_1_" class="st2" d="M234.8,44L234.8,44c-11.66,0-21.2,9.54-21.2,21.2v28.27c0,11.66,9.54,21.2,21.2,21.2h0
		c11.66,0,21.2-9.54,21.2-21.2V65.2C256,53.54,246.46,44,234.8,44z"/>
	<path id="I_1_" class="st2" d="M181.61,44h-6.69c-9.82,0-17.86,8.04-17.86,17.86v6.69c0,9.82,8.04,17.86,17.86,17.86h6.69
		c9.82,0,17.86-8.04,17.86-17.86v-6.69C199.47,52.04,191.43,44,181.61,44z"/>
	<path id="G_1_" class="st2" d="M128.8,128.8v42.4h84.29c-3.46,23.89-24.15,42.4-48.96,42.4h-28.27
		c-27.21,0-49.47-22.26-49.47-49.47v-28.27c0-27.21,22.26-49.47,49.47-49.47h0.35v-0.02c3.72-0.19,6.71-3.28,6.71-7.05V51.07
		c0-3.77-2.99-6.86-6.71-7.05V44h-0.35h-7.07c0,0-9,0.21-9.86,0.58C76.9,49.5,44,85.49,44,128.8v42.4c0,46.64,38.16,84.8,84.8,84.8
		h42.4c46.64,0,84.8-38.16,84.8-84.8v-14.13V128.8H128.8z"/>
</g>
<g id="Reglas" class="st0">
</g>
<g id="Capa_3" class="st0">
	<g class="st3">
		<path d="M150,1c39.8,0,77.22,15.5,105.36,43.64S299,110.2,299,150s-15.5,77.22-43.64,105.36S189.8,299,150,299
			s-77.22-15.5-105.36-43.64S1,189.8,1,150S16.5,72.78,44.64,44.64S110.2,1,150,1 M150,0C67.16,0,0,67.16,0,150s67.16,150,150,150
			s150-67.16,150-150S232.84,0,150,0L150,0z"/>
	</g>
</g>
</svg>
